<svg class="icon icon--logo" viewBox="0 0 1162.000000 1356.000000">

<g transform="translate(0.000000,1356.000000) scale(0.100000,-0.100000)" stroke="none">
<path d="M8 11298 c-2 -1239 1 -4288 6 -6775 l9 -4523 808 0 809 0 0 270 0
270 -470 0 -470 0 0 1990 0 1990 464 0 465 0 10 -53 c6 -28 186 -1022 401
-2207 215 -1185 395 -2179 401 -2207 l10 -53 392 0 392 0 411 2258 411 2257
-345 3 c-190 1 -347 0 -350 -3 -3 -3 -112 -771 -243 -1707 -131 -937 -243
-1740 -249 -1785 -8 -56 -16 -83 -25 -83 -7 0 -16 12 -19 28 -3 15 -114 810
-246 1767 -132 957 -243 1750 -245 1762 l-5 23 -350 0 -350 0 0 270 0 270
-470 0 -470 0 0 1985 0 1985 464 0 c434 0 465 -1 470 -17 3 -10 183 -1001 401
-2203 217 -1202 400 -2209 406 -2238 l10 -52 392 0 392 0 411 2258 411 2257
-345 3 c-190 1 -347 0 -350 -3 -3 -3 -112 -771 -243 -1707 -131 -937 -243
-1740 -249 -1785 -8 -56 -16 -83 -25 -83 -7 0 -16 12 -19 28 -3 15 -114 810
-246 1767 -132 957 -243 1750 -245 1763 l-5 22 -345 0 -345 0 0 265 0 265
-470 0 -470 0 0 1990 0 1990 -340 0 -340 0 -2 -2252z"/>
<path d="M1623 13528 c3 -13 184 -1006 402 -2208 217 -1202 400 -2209 406
-2237 l10 -53 392 0 392 0 411 2258 411 2257 -345 3 c-190 1 -347 0 -350 -3
-3 -3 -112 -771 -243 -1707 -131 -937 -243 -1740 -249 -1785 -8 -56 -16 -83
-25 -83 -7 0 -16 12 -19 28 -3 15 -114 810 -246 1767 -132 957 -243 1750 -245
1763 l-5 22 -351 0 -351 0 5 -22z"/>
<path d="M4378 11298 c-2 -1239 1 -4288 6 -6775 l9 -4523 303 0 304 0 0 688
c0 702 -12 1343 -30 1647 -9 151 -36 504 -44 578 -1 15 2 27 9 27 6 0 256
-662 556 -1470 l544 -1470 284 0 284 0 -6 3392 c-4 1865 -7 4914 -7 6775 l0
3383 -311 0 -311 0 5 -1097 c5 -1107 8 -1225 48 -1671 19 -209 20 -270 6 -251
-2 2 -248 681 -548 1509 l-544 1505 -278 3 -277 2 -2 -2252z m1098 -784 c296
-801 541 -1460 542 -1465 2 -5 -8 -9 -23 -9 l-27 0 5 -1097 c5 -1107 8 -1225
48 -1671 19 -209 20 -270 6 -251 -3 3 -1062 2931 -1085 2997 -3 7 5 12 22 12
l26 0 0 688 c0 702 -12 1343 -30 1647 -9 151 -36 504 -44 578 -1 15 2 27 9 27
6 0 254 -655 551 -1456z m2 -4518 c298 -805 542 -1466 542 -1470 0 -3 -9 -6
-21 -6 l-21 0 5 -1097 c5 -1107 8 -1225 48 -1671 19 -209 20 -270 6 -251 -2 2
-248 681 -548 1509 -522 1442 -544 1505 -522 1508 l23 3 0 687 c0 702 -12
1344 -30 1647 -9 151 -36 504 -44 578 -1 15 2 27 9 27 6 0 255 -659 553 -1464z"/>
<path d="M7258 11298 c-2 -1239 1 -4288 6 -6775 l9 -4523 848 0 849 0 0 270 0
270 -510 0 -510 0 0 775 0 775 385 0 385 0 0 270 0 270 -385 0 -385 0 0 675 0
675 495 0 495 0 0 270 c0 173 4 270 10 270 6 0 10 97 10 270 l0 270 -510 0
-510 0 0 775 0 775 385 0 385 0 0 270 0 270 -385 0 -385 0 0 675 0 675 495 0
495 0 0 265 c0 229 2 265 15 265 13 0 15 37 15 270 l0 270 -510 0 -510 0 0
775 0 775 385 0 385 0 0 270 0 270 -385 0 -385 0 0 675 0 675 495 0 495 0 0
270 0 270 -835 0 -835 0 -2 -2252z"/>
<path d="M9348 11298 c-2 -1239 1 -4288 6 -6775 l9 -4523 333 0 334 0 0 845 0
845 128 0 127 0 300 -845 300 -845 364 0 c286 0 362 3 358 13 -2 6 -166 412
-362 902 -319 794 -356 891 -340 900 236 143 368 307 463 576 75 212 97 389
97 774 0 257 -4 327 -19 410 -48 264 -151 478 -300 628 -77 77 -148 125 -269
182 -184 87 -359 122 -664 132 l-193 6 0 844 0 843 128 0 127 0 300 -845 300
-845 364 0 c286 0 362 3 358 13 -2 6 -166 412 -362 902 -319 794 -356 891
-340 900 236 143 368 307 463 576 75 212 97 389 97 774 0 257 -4 327 -19 410
-48 264 -151 478 -300 628 -77 77 -148 125 -269 182 -182 86 -358 122 -659
132 l-188 6 0 839 0 838 128 0 127 0 300 -845 300 -845 364 0 c286 0 362 3
358 13 -2 6 -166 412 -362 902 -319 794 -356 891 -340 900 236 143 368 307
463 576 75 212 97 389 97 774 0 343 -9 422 -67 605 -132 417 -416 648 -890
726 -84 14 -197 18 -625 21 l-523 5 -2 -2254z m1031 1727 c196 -48 309 -157
363 -352 20 -71 22 -108 26 -428 4 -387 -4 -516 -43 -651 -33 -113 -57 -157
-121 -224 -99 -104 -204 -140 -431 -147 l-153 -5 0 917 0 918 148 -6 c81 -4
176 -13 211 -22z m0 -4510 c196 -48 309 -157 363 -352 20 -71 22 -108 26 -428
4 -387 -4 -516 -43 -651 -33 -113 -57 -157 -121 -224 -99 -104 -204 -140 -431
-147 l-153 -5 0 917 0 918 148 -6 c81 -4 176 -13 211 -22z m10 -4520 c196 -48
309 -157 363 -352 20 -71 22 -108 26 -428 4 -387 -4 -516 -43 -651 -33 -113
-57 -157 -121 -224 -99 -104 -204 -140 -431 -147 l-153 -5 0 917 0 918 148 -6
c81 -4 176 -13 211 -22z"/>
</g>
</svg>
